<mxfile host="app.diagrams.net" modified="2023-10-23T16:25:20.004Z" agent="Mozilla/5.0 (Windows NT 10.0; Win64; x64) AppleWebKit/537.36 (KHTML, like Gecko) Chrome/118.0.0.0 Safari/537.36" etag="TNlHTCRxAU23Xv6i4CL_" version="21.7.2" type="github">
  <diagram name="第 1 页" id="bIz3ASBqkHIxNQpi39nR">
    <mxGraphModel dx="989" dy="509" grid="1" gridSize="10" guides="1" tooltips="1" connect="1" arrows="1" fold="1" page="1" pageScale="1" pageWidth="827" pageHeight="1169" math="0" shadow="0">
      <root>
        <mxCell id="0" />
        <mxCell id="1" parent="0" />
        <mxCell id="fzxnIGhkzDbfsNBIgm_b-10" value="" style="rounded=0;whiteSpace=wrap;html=1;fillColor=#000000;" vertex="1" parent="1">
          <mxGeometry x="110" y="80" width="100" height="90" as="geometry" />
        </mxCell>
        <mxCell id="fzxnIGhkzDbfsNBIgm_b-72" style="edgeStyle=orthogonalEdgeStyle;rounded=0;orthogonalLoop=1;jettySize=auto;html=1;exitX=1;exitY=0.25;exitDx=0;exitDy=0;" edge="1" parent="1" source="fzxnIGhkzDbfsNBIgm_b-12">
          <mxGeometry relative="1" as="geometry">
            <mxPoint x="320" y="112.28571428571433" as="targetPoint" />
          </mxGeometry>
        </mxCell>
        <mxCell id="fzxnIGhkzDbfsNBIgm_b-12" value="&lt;font style=&quot;font-size: 24px;&quot;&gt;客户&lt;/font&gt;" style="rounded=0;whiteSpace=wrap;html=1;fillColor=default;" vertex="1" parent="1">
          <mxGeometry x="120" y="90" width="100" height="90" as="geometry" />
        </mxCell>
        <mxCell id="fzxnIGhkzDbfsNBIgm_b-15" value="单击Web页上的结账按钮" style="text;whiteSpace=wrap;fontSize=8;" vertex="1" parent="1">
          <mxGeometry x="220" y="90" width="110" height="20" as="geometry" />
        </mxCell>
        <mxCell id="fzxnIGhkzDbfsNBIgm_b-75" style="edgeStyle=orthogonalEdgeStyle;rounded=0;orthogonalLoop=1;jettySize=auto;html=1;entryX=1;entryY=0.5;entryDx=0;entryDy=0;" edge="1" parent="1">
          <mxGeometry relative="1" as="geometry">
            <mxPoint x="320" y="150" as="sourcePoint" />
            <mxPoint x="220" y="150" as="targetPoint" />
          </mxGeometry>
        </mxCell>
        <mxCell id="fzxnIGhkzDbfsNBIgm_b-18" value="4&lt;br&gt;&lt;br&gt;&lt;br&gt;&lt;br&gt;&lt;br&gt;&lt;br&gt;" style="rounded=1;whiteSpace=wrap;html=1;" vertex="1" parent="1">
          <mxGeometry x="320" y="80" width="120" height="110" as="geometry" />
        </mxCell>
        <mxCell id="fzxnIGhkzDbfsNBIgm_b-21" value="验证Web页" style="text;whiteSpace=wrap;fontSize=8;" vertex="1" parent="1">
          <mxGeometry x="245" y="150" width="60" height="20" as="geometry" />
        </mxCell>
        <mxCell id="fzxnIGhkzDbfsNBIgm_b-23" value="" style="endArrow=none;html=1;rounded=0;entryX=1;entryY=0.25;entryDx=0;entryDy=0;exitX=0;exitY=0.25;exitDx=0;exitDy=0;" edge="1" parent="1" source="fzxnIGhkzDbfsNBIgm_b-18" target="fzxnIGhkzDbfsNBIgm_b-18">
          <mxGeometry width="50" height="50" relative="1" as="geometry">
            <mxPoint x="210" y="250" as="sourcePoint" />
            <mxPoint x="260" y="200" as="targetPoint" />
          </mxGeometry>
        </mxCell>
        <mxCell id="fzxnIGhkzDbfsNBIgm_b-24" value="显示客户结账页面" style="text;html=1;strokeColor=none;fillColor=none;align=center;verticalAlign=middle;whiteSpace=wrap;rounded=0;" vertex="1" parent="1">
          <mxGeometry x="350" y="130" width="60" height="30" as="geometry" />
        </mxCell>
        <mxCell id="fzxnIGhkzDbfsNBIgm_b-28" style="edgeStyle=orthogonalEdgeStyle;rounded=0;orthogonalLoop=1;jettySize=auto;html=1;" edge="1" parent="1" source="fzxnIGhkzDbfsNBIgm_b-25">
          <mxGeometry relative="1" as="geometry">
            <mxPoint x="440" y="120" as="targetPoint" />
          </mxGeometry>
        </mxCell>
        <mxCell id="fzxnIGhkzDbfsNBIgm_b-25" value="客户主文件" style="rounded=0;whiteSpace=wrap;html=1;" vertex="1" parent="1">
          <mxGeometry x="490" y="110" width="100" height="20" as="geometry" />
        </mxCell>
        <mxCell id="fzxnIGhkzDbfsNBIgm_b-29" style="edgeStyle=orthogonalEdgeStyle;rounded=0;orthogonalLoop=1;jettySize=auto;html=1;exitX=0;exitY=0.5;exitDx=0;exitDy=0;entryX=1;entryY=0.5;entryDx=0;entryDy=0;" edge="1" parent="1" source="fzxnIGhkzDbfsNBIgm_b-26">
          <mxGeometry relative="1" as="geometry">
            <mxPoint x="440" y="150" as="targetPoint" />
          </mxGeometry>
        </mxCell>
        <mxCell id="fzxnIGhkzDbfsNBIgm_b-26" value="订单详细信息文件" style="rounded=0;whiteSpace=wrap;html=1;" vertex="1" parent="1">
          <mxGeometry x="490" y="140" width="100" height="20" as="geometry" />
        </mxCell>
        <mxCell id="fzxnIGhkzDbfsNBIgm_b-35" value="" style="rounded=0;whiteSpace=wrap;html=1;fillColor=#000000;" vertex="1" parent="1">
          <mxGeometry x="110" y="210" width="100" height="90" as="geometry" />
        </mxCell>
        <mxCell id="fzxnIGhkzDbfsNBIgm_b-77" style="edgeStyle=orthogonalEdgeStyle;rounded=0;orthogonalLoop=1;jettySize=auto;html=1;entryX=0;entryY=0.5;entryDx=0;entryDy=0;" edge="1" parent="1">
          <mxGeometry relative="1" as="geometry">
            <mxPoint x="220" y="250" as="sourcePoint" />
            <mxPoint x="320" y="250" as="targetPoint" />
          </mxGeometry>
        </mxCell>
        <mxCell id="fzxnIGhkzDbfsNBIgm_b-36" value="&lt;font style=&quot;font-size: 24px;&quot;&gt;客户&lt;/font&gt;" style="rounded=0;whiteSpace=wrap;html=1;fillColor=default;" vertex="1" parent="1">
          <mxGeometry x="120" y="220" width="100" height="90" as="geometry" />
        </mxCell>
        <mxCell id="fzxnIGhkzDbfsNBIgm_b-38" value="信用卡信息" style="text;whiteSpace=wrap;fontSize=8;" vertex="1" parent="1">
          <mxGeometry x="245" y="230" width="45" height="20" as="geometry" />
        </mxCell>
        <mxCell id="fzxnIGhkzDbfsNBIgm_b-78" style="edgeStyle=orthogonalEdgeStyle;rounded=0;orthogonalLoop=1;jettySize=auto;html=1;entryX=1;entryY=0.5;entryDx=0;entryDy=0;" edge="1" parent="1">
          <mxGeometry relative="1" as="geometry">
            <mxPoint x="320" y="285" as="sourcePoint" />
            <mxPoint x="220" y="285" as="targetPoint" />
          </mxGeometry>
        </mxCell>
        <mxCell id="fzxnIGhkzDbfsNBIgm_b-80" style="edgeStyle=orthogonalEdgeStyle;rounded=0;orthogonalLoop=1;jettySize=auto;html=1;entryX=0.007;entryY=0.616;entryDx=0;entryDy=0;entryPerimeter=0;" edge="1" parent="1">
          <mxGeometry relative="1" as="geometry">
            <mxPoint x="439.3" y="249.99857142857135" as="sourcePoint" />
            <mxPoint x="530" y="250.40999999999994" as="targetPoint" />
          </mxGeometry>
        </mxCell>
        <mxCell id="fzxnIGhkzDbfsNBIgm_b-39" value="5&lt;br&gt;&lt;br&gt;&lt;br&gt;&lt;br&gt;&lt;br&gt;&lt;br&gt;" style="rounded=1;whiteSpace=wrap;html=1;" vertex="1" parent="1">
          <mxGeometry x="320" y="210" width="120" height="110" as="geometry" />
        </mxCell>
        <mxCell id="fzxnIGhkzDbfsNBIgm_b-41" value="信用卡数据&#xa;客户反馈信息" style="text;whiteSpace=wrap;fontSize=8;" vertex="1" parent="1">
          <mxGeometry x="245" y="280" width="55" height="20" as="geometry" />
        </mxCell>
        <mxCell id="fzxnIGhkzDbfsNBIgm_b-42" value="" style="endArrow=none;html=1;rounded=0;entryX=1;entryY=0.25;entryDx=0;entryDy=0;exitX=0;exitY=0.25;exitDx=0;exitDy=0;elbow=vertical;" edge="1" parent="1" source="fzxnIGhkzDbfsNBIgm_b-39" target="fzxnIGhkzDbfsNBIgm_b-39">
          <mxGeometry width="50" height="50" relative="1" as="geometry">
            <mxPoint x="210" y="380" as="sourcePoint" />
            <mxPoint x="260" y="330" as="targetPoint" />
          </mxGeometry>
        </mxCell>
        <mxCell id="fzxnIGhkzDbfsNBIgm_b-43" value="信用卡验证及支付" style="text;html=1;strokeColor=none;fillColor=none;align=center;verticalAlign=middle;whiteSpace=wrap;rounded=0;" vertex="1" parent="1">
          <mxGeometry x="350" y="260" width="60" height="30" as="geometry" />
        </mxCell>
        <mxCell id="fzxnIGhkzDbfsNBIgm_b-81" style="edgeStyle=orthogonalEdgeStyle;rounded=0;orthogonalLoop=1;jettySize=auto;html=1;entryX=1.023;entryY=0.41;entryDx=0;entryDy=0;entryPerimeter=0;" edge="1" parent="1">
          <mxGeometry relative="1" as="geometry">
            <mxPoint x="528.62" y="274.71857142857135" as="sourcePoint" />
            <mxPoint x="441.38" y="274.79" as="targetPoint" />
          </mxGeometry>
        </mxCell>
        <mxCell id="fzxnIGhkzDbfsNBIgm_b-48" value="" style="rounded=0;whiteSpace=wrap;html=1;fillColor=#000000;" vertex="1" parent="1">
          <mxGeometry x="530" y="210" width="100" height="90" as="geometry" />
        </mxCell>
        <mxCell id="fzxnIGhkzDbfsNBIgm_b-49" value="&lt;font style=&quot;font-size: 24px;&quot;&gt;信用卡&lt;br&gt;公司&lt;/font&gt;" style="rounded=0;whiteSpace=wrap;html=1;fillColor=default;" vertex="1" parent="1">
          <mxGeometry x="540" y="220" width="100" height="90" as="geometry" />
        </mxCell>
        <mxCell id="fzxnIGhkzDbfsNBIgm_b-52" value="信用卡数据&#xa;客户反馈信息" style="text;whiteSpace=wrap;fontSize=8;" vertex="1" parent="1">
          <mxGeometry x="460" y="270" width="50" height="20" as="geometry" />
        </mxCell>
        <mxCell id="fzxnIGhkzDbfsNBIgm_b-54" value="信用卡信息" style="text;whiteSpace=wrap;fontSize=8;" vertex="1" parent="1">
          <mxGeometry x="460" y="230" width="50" height="20" as="geometry" />
        </mxCell>
        <mxCell id="fzxnIGhkzDbfsNBIgm_b-69" style="edgeStyle=orthogonalEdgeStyle;rounded=0;orthogonalLoop=1;jettySize=auto;html=1;entryX=1;entryY=0.5;entryDx=0;entryDy=0;exitX=-0.006;exitY=0.319;exitDx=0;exitDy=0;exitPerimeter=0;" edge="1" parent="1" source="fzxnIGhkzDbfsNBIgm_b-56" target="fzxnIGhkzDbfsNBIgm_b-65">
          <mxGeometry relative="1" as="geometry" />
        </mxCell>
        <mxCell id="fzxnIGhkzDbfsNBIgm_b-71" style="edgeStyle=orthogonalEdgeStyle;rounded=0;orthogonalLoop=1;jettySize=auto;html=1;entryX=1;entryY=0.5;entryDx=0;entryDy=0;exitX=-0.006;exitY=0.642;exitDx=0;exitDy=0;exitPerimeter=0;" edge="1" parent="1" source="fzxnIGhkzDbfsNBIgm_b-56" target="fzxnIGhkzDbfsNBIgm_b-66">
          <mxGeometry relative="1" as="geometry" />
        </mxCell>
        <mxCell id="fzxnIGhkzDbfsNBIgm_b-79" style="edgeStyle=orthogonalEdgeStyle;rounded=0;orthogonalLoop=1;jettySize=auto;html=1;entryX=-0.016;entryY=0.557;entryDx=0;entryDy=0;entryPerimeter=0;" edge="1" parent="1" source="fzxnIGhkzDbfsNBIgm_b-56" target="fzxnIGhkzDbfsNBIgm_b-61">
          <mxGeometry relative="1" as="geometry" />
        </mxCell>
        <mxCell id="fzxnIGhkzDbfsNBIgm_b-56" value="6&lt;br&gt;&lt;br&gt;&lt;br&gt;&lt;br&gt;&lt;br&gt;&lt;br&gt;" style="rounded=1;whiteSpace=wrap;html=1;" vertex="1" parent="1">
          <mxGeometry x="320" y="340" width="120" height="110" as="geometry" />
        </mxCell>
        <mxCell id="fzxnIGhkzDbfsNBIgm_b-57" value="" style="endArrow=none;html=1;rounded=0;entryX=1;entryY=0.25;entryDx=0;entryDy=0;exitX=0;exitY=0.25;exitDx=0;exitDy=0;elbow=vertical;" edge="1" parent="1" source="fzxnIGhkzDbfsNBIgm_b-56" target="fzxnIGhkzDbfsNBIgm_b-56">
          <mxGeometry width="50" height="50" relative="1" as="geometry">
            <mxPoint x="210" y="510" as="sourcePoint" />
            <mxPoint x="260" y="460" as="targetPoint" />
          </mxGeometry>
        </mxCell>
        <mxCell id="fzxnIGhkzDbfsNBIgm_b-58" value="向用户发送电子邮件并确认发货" style="text;html=1;strokeColor=none;fillColor=none;align=center;verticalAlign=middle;whiteSpace=wrap;rounded=0;" vertex="1" parent="1">
          <mxGeometry x="345" y="390" width="70" height="30" as="geometry" />
        </mxCell>
        <mxCell id="fzxnIGhkzDbfsNBIgm_b-61" value="" style="rounded=0;whiteSpace=wrap;html=1;fillColor=#000000;" vertex="1" parent="1">
          <mxGeometry x="530" y="345" width="100" height="90" as="geometry" />
        </mxCell>
        <mxCell id="fzxnIGhkzDbfsNBIgm_b-62" value="&lt;font style=&quot;font-size: 24px;&quot;&gt;客户&lt;/font&gt;" style="rounded=0;whiteSpace=wrap;html=1;fillColor=default;" vertex="1" parent="1">
          <mxGeometry x="540" y="355" width="100" height="90" as="geometry" />
        </mxCell>
        <mxCell id="fzxnIGhkzDbfsNBIgm_b-64" value="临时事件，&#xa;每小时发送一次" style="text;whiteSpace=wrap;fontSize=8;" vertex="1" parent="1">
          <mxGeometry x="450" y="390" width="70" height="15" as="geometry" />
        </mxCell>
        <mxCell id="fzxnIGhkzDbfsNBIgm_b-65" value="商品主文件" style="rounded=0;whiteSpace=wrap;html=1;" vertex="1" parent="1">
          <mxGeometry x="150" y="365" width="100" height="20" as="geometry" />
        </mxCell>
        <mxCell id="fzxnIGhkzDbfsNBIgm_b-66" value="客户主文件" style="rounded=0;whiteSpace=wrap;html=1;" vertex="1" parent="1">
          <mxGeometry x="150" y="400" width="100" height="20" as="geometry" />
        </mxCell>
        <mxCell id="fzxnIGhkzDbfsNBIgm_b-82" value="网店事件响应表后3行&amp;nbsp; 数据流图&amp;nbsp; &lt;br&gt;阮炜霖 2020101603" style="text;html=1;strokeColor=none;fillColor=none;align=center;verticalAlign=middle;whiteSpace=wrap;rounded=0;" vertex="1" parent="1">
          <mxGeometry x="270" y="20" width="190" height="30" as="geometry" />
        </mxCell>
      </root>
    </mxGraphModel>
  </diagram>
</mxfile>
